<svg xmlns="http://www.w3.org/2000/svg" width="1200" height="900" viewBox="0 0 1200 900" fill="none">
  <defs>
    <linearGradient id="g1" x1="0" y1="0" x2="1" y2="1">
      <stop offset="0" stop-color="#fde68a"/>
      <stop offset="0.55" stop-color="#fb923c"/>
      <stop offset="1" stop-color="#7c2d12"/>
    </linearGradient>
    <linearGradient id="glass" x1="0" y1="0" x2="0" y2="1">
      <stop offset="0" stop-color="#ffffff" stop-opacity="0.85"/>
      <stop offset="1" stop-color="#ffffff" stop-opacity="0.2"/>
    </linearGradient>
  </defs>
  <rect width="1200" height="900" rx="72" fill="url(#g1)"/>
  <circle cx="960" cy="240" r="150" fill="#fff" fill-opacity="0.18"/>
  <circle cx="260" cy="720" r="190" fill="#fff" fill-opacity="0.14"/>
  <g opacity="0.95">
    <rect x="430" y="210" width="340" height="480" rx="56" fill="url(#glass)" stroke="#ffffff" stroke-opacity="0.45"/>
    <rect x="470" y="260" width="260" height="320" rx="42" fill="#111827" fill-opacity="0.06"/>
    <rect x="520" y="170" width="160" height="70" rx="28" fill="#111827"/>
  </g>
  <text x="78" y="120" font-family="ui-sans-serif, system-ui, -apple-system, Segoe UI, Roboto" font-size="44" font-weight="800" fill="#111827">Spices Powder</text>
  <text x="78" y="170" font-family="ui-sans-serif, system-ui, -apple-system, Segoe UI, Roboto" font-size="22" fill="#111827" opacity="0.75">Fresh grind · Bold aroma · Clean packs</text>
</svg>

<svg xmlns="http://www.w3.org/2000/svg" width="1200" height="900" viewBox="0 0 1200 900" fill="none">
  <defs>
    <linearGradient id="g1" x1="0" y1="0" x2="1" y2="1">
      <stop offset="0" stop-color="#fde68a"/>
      <stop offset="0.5" stop-color="#fbcfe8"/>
      <stop offset="1" stop-color="#bfdbfe"/>
    </linearGradient>
    <linearGradient id="glass" x1="0" y1="0" x2="0" y2="1">
      <stop offset="0" stop-color="#ffffff" stop-opacity="0.85"/>
      <stop offset="1" stop-color="#ffffff" stop-opacity="0.2"/>
    </linearGradient>
  </defs>
  <rect width="1200" height="900" rx="72" fill="url(#g1)"/>
  <circle cx="960" cy="240" r="150" fill="#fff" fill-opacity="0.35"/>
  <circle cx="260" cy="720" r="190" fill="#fff" fill-opacity="0.25"/>
  <g opacity="0.95">
    <rect x="430" y="210" width="340" height="480" rx="56" fill="url(#glass)" stroke="#ffffff" stroke-opacity="0.55"/>
    <rect x="470" y="260" width="260" height="320" rx="42" fill="#ffffff" fill-opacity="0.35"/>
    <rect x="520" y="170" width="160" height="70" rx="28" fill="#111827"/>
    <rect x="545" y="150" width="110" height="40" rx="18" fill="#ffffff" fill-opacity="0.7"/>
  </g>
  <text x="78" y="120" font-family="ui-sans-serif, system-ui, -apple-system, Segoe UI, Roboto" font-size="44" font-weight="700" fill="#111827">Signature Scent</text>
  <text x="78" y="170" font-family="ui-sans-serif, system-ui, -apple-system, Segoe UI, Roboto" font-size="22" fill="#111827" opacity="0.75">Bright top notes · Soft florals · Clean musk</text>
</svg>

