<svg xmlns="http://www.w3.org/2000/svg" width="320" height="72" viewBox="0 0 320 72" fill="none">
  <defs>
    <linearGradient id="mw" x1="0" y1="0" x2="1" y2="1">
      <stop offset="0" stop-color="#7c2d12"/>
      <stop offset="1" stop-color="#111827"/>
    </linearGradient>
  </defs>
  <rect x="0" y="0" width="320" height="72" rx="18" fill="url(#mw)"/>
  <circle cx="44" cy="36" r="18" fill="#fef3c7" fill-opacity="0.9"/>
  <path d="M37 42C41 30 47 30 51 42" stroke="#7c2d12" stroke-width="4" stroke-linecap="round"/>
  <text x="76" y="44" font-family="ui-sans-serif, system-ui, -apple-system, Segoe UI, Roboto" font-size="22" font-weight="800" fill="#fff">Masalay</text>
  <text x="170" y="44" font-family="ui-sans-serif, system-ui, -apple-system, Segoe UI, Roboto" font-size="22" font-weight="800" fill="#fde68a">Wala</text>
  <text x="245" y="44" font-family="ui-sans-serif, system-ui, -apple-system, Segoe UI, Roboto" font-size="12" font-weight="700" fill="#e5e7eb" opacity="0.9">ORGANIC</text>
</svg>

<svg xmlns="http://www.w3.org/2000/svg" width="240" height="72" viewBox="0 0 240 72" fill="none">
  <rect x="0" y="0" width="240" height="72" rx="18" fill="#111827"/>
  <path d="M38 52L51.5 20H56.5L70 52H64.5L61.7 45.2H46.3L43.5 52H38ZM48.2 40.7H59.8L54 26.4L48.2 40.7Z" fill="#fff"/>
  <path d="M75 52V20H88.7C91.8 20 94.2 20.8 95.8 22.4C97.4 24 98.2 26.1 98.2 28.7C98.2 30.7 97.7 32.5 96.8 33.9C95.9 35.3 94.6 36.3 92.9 36.9L100.5 52H94.3L87.6 38.5H80.7V52H75ZM80.7 33.3H88.1C89.8 33.3 91.1 32.9 91.9 32C92.8 31.2 93.2 30 93.2 28.6C93.2 27.1 92.8 25.9 92 25C91.1 24.2 89.8 23.8 88.1 23.8H80.7V33.3Z" fill="#fff"/>
  <path d="M105.7 52V20H110.8L122.2 41.3L133.6 20H138.7V52H133.7V29.6L123.6 48.1H120.8L110.7 29.6V52H105.7Z" fill="#fff"/>
  <path d="M146 52V20H168.6V24.4H151V33.7H167.2V38H151V47.6H168.9V52H146Z" fill="#fff"/>
  <text x="175" y="44" font-family="ui-sans-serif, system-ui, -apple-system, Segoe UI, Roboto" font-size="12" fill="#d4d4d8">STORE</text>
</svg>

